<mxfile host="app.diagrams.net" agent="Mozilla/5.0 (Macintosh; Intel Mac OS X 10_15_7) AppleWebKit/537.36 (KHTML, like Gecko) Chrome/136.0.0.0 Safari/537.36" version="26.1.0">
  <diagram name="Page-1" id="qFxYQJbpSyoh8fPCr9-L">
    <mxGraphModel dx="1087" dy="963" grid="1" gridSize="10" guides="1" tooltips="1" connect="1" arrows="1" fold="1" page="1" pageScale="1" pageWidth="850" pageHeight="1100" math="0" shadow="0">
      <root>
        <mxCell id="0" />
        <mxCell id="1" parent="0" />
        <mxCell id="7NGxq5-9-iapTq57Xf24-4" value="&lt;p style=&quot;margin:0px;margin-top:6px;text-align:center;&quot;&gt;&lt;b&gt;&amp;lt;&amp;lt;subsystem&amp;gt;&amp;gt;&lt;/b&gt;&lt;/p&gt;&lt;p style=&quot;margin:0px;margin-top:6px;text-align:center;&quot;&gt;Playwright Test Suite&lt;/p&gt;" style="align=left;overflow=fill;html=1;dropTarget=0;whiteSpace=wrap;fillColor=#E6E6E6;" vertex="1" parent="1">
          <mxGeometry x="130" y="100" width="230" height="360" as="geometry" />
        </mxCell>
        <mxCell id="7NGxq5-9-iapTq57Xf24-5" value="" style="shape=component;jettyWidth=8;jettyHeight=4;" vertex="1" parent="7NGxq5-9-iapTq57Xf24-4">
          <mxGeometry x="1" width="20" height="20" relative="1" as="geometry">
            <mxPoint x="-24" y="4" as="offset" />
          </mxGeometry>
        </mxCell>
        <mxCell id="7NGxq5-9-iapTq57Xf24-54" style="edgeStyle=orthogonalEdgeStyle;rounded=0;orthogonalLoop=1;jettySize=auto;html=1;endArrow=none;startFill=0;" edge="1" parent="1" source="7NGxq5-9-iapTq57Xf24-8" target="7NGxq5-9-iapTq57Xf24-32">
          <mxGeometry relative="1" as="geometry" />
        </mxCell>
        <mxCell id="7NGxq5-9-iapTq57Xf24-8" value="«component»&lt;br&gt;&lt;b&gt;Functional Tests&lt;/b&gt;" style="html=1;dropTarget=0;whiteSpace=wrap;" vertex="1" parent="1">
          <mxGeometry x="162.5" y="160" width="165" height="70" as="geometry" />
        </mxCell>
        <mxCell id="7NGxq5-9-iapTq57Xf24-9" value="" style="shape=module;jettyWidth=8;jettyHeight=4;" vertex="1" parent="7NGxq5-9-iapTq57Xf24-8">
          <mxGeometry x="1" width="20" height="20" relative="1" as="geometry">
            <mxPoint x="-27" y="7" as="offset" />
          </mxGeometry>
        </mxCell>
        <mxCell id="7NGxq5-9-iapTq57Xf24-14" style="edgeStyle=orthogonalEdgeStyle;rounded=0;orthogonalLoop=1;jettySize=auto;html=1;entryX=0;entryY=0.5;entryDx=0;entryDy=0;exitX=0;exitY=0.5;exitDx=0;exitDy=0;" edge="1" parent="1" source="7NGxq5-9-iapTq57Xf24-10" target="7NGxq5-9-iapTq57Xf24-12">
          <mxGeometry relative="1" as="geometry">
            <Array as="points">
              <mxPoint x="150" y="295" />
              <mxPoint x="150" y="395" />
            </Array>
          </mxGeometry>
        </mxCell>
        <mxCell id="7NGxq5-9-iapTq57Xf24-10" value="«component»&lt;br&gt;&lt;b&gt;Load Tests&lt;/b&gt;" style="html=1;dropTarget=0;whiteSpace=wrap;" vertex="1" parent="1">
          <mxGeometry x="162.5" y="260" width="165" height="70" as="geometry" />
        </mxCell>
        <mxCell id="7NGxq5-9-iapTq57Xf24-11" value="" style="shape=module;jettyWidth=8;jettyHeight=4;" vertex="1" parent="7NGxq5-9-iapTq57Xf24-10">
          <mxGeometry x="1" width="20" height="20" relative="1" as="geometry">
            <mxPoint x="-27" y="7" as="offset" />
          </mxGeometry>
        </mxCell>
        <mxCell id="7NGxq5-9-iapTq57Xf24-55" style="edgeStyle=orthogonalEdgeStyle;rounded=0;orthogonalLoop=1;jettySize=auto;html=1;endArrow=none;startFill=0;" edge="1" parent="1" source="7NGxq5-9-iapTq57Xf24-12" target="7NGxq5-9-iapTq57Xf24-37">
          <mxGeometry relative="1" as="geometry" />
        </mxCell>
        <mxCell id="7NGxq5-9-iapTq57Xf24-12" value="«component»&lt;br&gt;&lt;b&gt;MCP Programming&lt;/b&gt;" style="html=1;dropTarget=0;whiteSpace=wrap;" vertex="1" parent="1">
          <mxGeometry x="162.5" y="360" width="165" height="70" as="geometry" />
        </mxCell>
        <mxCell id="7NGxq5-9-iapTq57Xf24-13" value="" style="shape=module;jettyWidth=8;jettyHeight=4;" vertex="1" parent="7NGxq5-9-iapTq57Xf24-12">
          <mxGeometry x="1" width="20" height="20" relative="1" as="geometry">
            <mxPoint x="-27" y="7" as="offset" />
          </mxGeometry>
        </mxCell>
        <mxCell id="7NGxq5-9-iapTq57Xf24-20" value="" style="ellipse;whiteSpace=wrap;html=1;align=center;aspect=fixed;fillColor=none;strokeColor=none;resizable=0;perimeter=centerPerimeter;rotatable=0;allowArrows=0;points=[];outlineConnect=1;" vertex="1" parent="1">
          <mxGeometry x="230" y="540" width="10" height="10" as="geometry" />
        </mxCell>
        <mxCell id="7NGxq5-9-iapTq57Xf24-21" value="" style="shape=providedRequiredInterface;html=1;verticalLabelPosition=bottom;sketch=0;direction=north;" vertex="1" parent="1">
          <mxGeometry x="230" y="500" width="30" height="30" as="geometry" />
        </mxCell>
        <mxCell id="7NGxq5-9-iapTq57Xf24-26" value="" style="rounded=0;whiteSpace=wrap;html=1;" vertex="1" parent="1">
          <mxGeometry x="235" y="450" width="20" height="20" as="geometry" />
        </mxCell>
        <mxCell id="7NGxq5-9-iapTq57Xf24-27" style="edgeStyle=orthogonalEdgeStyle;rounded=0;orthogonalLoop=1;jettySize=auto;html=1;entryX=1;entryY=0.5;entryDx=0;entryDy=0;entryPerimeter=0;endArrow=none;startFill=0;" edge="1" parent="1" source="7NGxq5-9-iapTq57Xf24-12" target="7NGxq5-9-iapTq57Xf24-21">
          <mxGeometry relative="1" as="geometry" />
        </mxCell>
        <mxCell id="7NGxq5-9-iapTq57Xf24-28" value="MCP Interface" style="text;html=1;align=center;verticalAlign=middle;resizable=0;points=[];autosize=1;strokeColor=none;fillColor=none;" vertex="1" parent="1">
          <mxGeometry x="250" y="480" width="100" height="30" as="geometry" />
        </mxCell>
        <mxCell id="7NGxq5-9-iapTq57Xf24-31" style="edgeStyle=orthogonalEdgeStyle;rounded=0;orthogonalLoop=1;jettySize=auto;html=1;endArrow=none;startFill=0;" edge="1" parent="1" source="7NGxq5-9-iapTq57Xf24-29" target="7NGxq5-9-iapTq57Xf24-21">
          <mxGeometry relative="1" as="geometry" />
        </mxCell>
        <mxCell id="7NGxq5-9-iapTq57Xf24-29" value="«component»&lt;br&gt;&lt;b&gt;LLM&lt;/b&gt;" style="html=1;dropTarget=0;whiteSpace=wrap;" vertex="1" parent="1">
          <mxGeometry x="162.5" y="560" width="165" height="70" as="geometry" />
        </mxCell>
        <mxCell id="7NGxq5-9-iapTq57Xf24-30" value="" style="shape=module;jettyWidth=8;jettyHeight=4;" vertex="1" parent="7NGxq5-9-iapTq57Xf24-29">
          <mxGeometry x="1" width="20" height="20" relative="1" as="geometry">
            <mxPoint x="-27" y="7" as="offset" />
          </mxGeometry>
        </mxCell>
        <mxCell id="7NGxq5-9-iapTq57Xf24-49" style="edgeStyle=orthogonalEdgeStyle;rounded=0;orthogonalLoop=1;jettySize=auto;html=1;endArrow=none;startFill=0;" edge="1" parent="1" source="7NGxq5-9-iapTq57Xf24-32" target="7NGxq5-9-iapTq57Xf24-39">
          <mxGeometry relative="1" as="geometry" />
        </mxCell>
        <mxCell id="7NGxq5-9-iapTq57Xf24-32" value="" style="shape=providedRequiredInterface;html=1;verticalLabelPosition=bottom;sketch=0;direction=west;" vertex="1" parent="1">
          <mxGeometry x="460" y="140" width="30" height="30" as="geometry" />
        </mxCell>
        <mxCell id="7NGxq5-9-iapTq57Xf24-34" value="Landing Page UI" style="text;html=1;align=center;verticalAlign=middle;resizable=0;points=[];autosize=1;strokeColor=none;fillColor=none;" vertex="1" parent="1">
          <mxGeometry x="480" y="120" width="110" height="30" as="geometry" />
        </mxCell>
        <mxCell id="7NGxq5-9-iapTq57Xf24-48" style="edgeStyle=orthogonalEdgeStyle;rounded=0;orthogonalLoop=1;jettySize=auto;html=1;endArrow=none;startFill=0;" edge="1" parent="1" source="7NGxq5-9-iapTq57Xf24-35" target="7NGxq5-9-iapTq57Xf24-41">
          <mxGeometry relative="1" as="geometry" />
        </mxCell>
        <mxCell id="7NGxq5-9-iapTq57Xf24-35" value="" style="shape=providedRequiredInterface;html=1;verticalLabelPosition=bottom;sketch=0;direction=west;" vertex="1" parent="1">
          <mxGeometry x="460" y="280" width="30" height="30" as="geometry" />
        </mxCell>
        <mxCell id="7NGxq5-9-iapTq57Xf24-36" value="Theia Client UI" style="text;html=1;align=center;verticalAlign=middle;resizable=0;points=[];autosize=1;strokeColor=none;fillColor=none;" vertex="1" parent="1">
          <mxGeometry x="480" y="260" width="100" height="30" as="geometry" />
        </mxCell>
        <mxCell id="7NGxq5-9-iapTq57Xf24-47" style="edgeStyle=orthogonalEdgeStyle;rounded=0;orthogonalLoop=1;jettySize=auto;html=1;endArrow=none;startFill=0;" edge="1" parent="1" source="7NGxq5-9-iapTq57Xf24-37" target="7NGxq5-9-iapTq57Xf24-43">
          <mxGeometry relative="1" as="geometry" />
        </mxCell>
        <mxCell id="7NGxq5-9-iapTq57Xf24-37" value="" style="shape=providedRequiredInterface;html=1;verticalLabelPosition=bottom;sketch=0;direction=west;" vertex="1" parent="1">
          <mxGeometry x="460" y="420" width="30" height="30" as="geometry" />
        </mxCell>
        <mxCell id="7NGxq5-9-iapTq57Xf24-38" value="Theia Client UI" style="text;html=1;align=center;verticalAlign=middle;resizable=0;points=[];autosize=1;strokeColor=none;fillColor=none;" vertex="1" parent="1">
          <mxGeometry x="480" y="400" width="100" height="30" as="geometry" />
        </mxCell>
        <mxCell id="7NGxq5-9-iapTq57Xf24-64" style="edgeStyle=orthogonalEdgeStyle;rounded=0;orthogonalLoop=1;jettySize=auto;html=1;endArrow=none;startFill=0;" edge="1" parent="1" source="7NGxq5-9-iapTq57Xf24-39" target="7NGxq5-9-iapTq57Xf24-58">
          <mxGeometry relative="1" as="geometry" />
        </mxCell>
        <mxCell id="7NGxq5-9-iapTq57Xf24-39" value="«component»&lt;br&gt;&lt;b&gt;Theia Landing Page&lt;/b&gt;" style="html=1;dropTarget=0;whiteSpace=wrap;" vertex="1" parent="1">
          <mxGeometry x="610" y="120" width="165" height="70" as="geometry" />
        </mxCell>
        <mxCell id="7NGxq5-9-iapTq57Xf24-40" value="" style="shape=module;jettyWidth=8;jettyHeight=4;" vertex="1" parent="7NGxq5-9-iapTq57Xf24-39">
          <mxGeometry x="1" width="20" height="20" relative="1" as="geometry">
            <mxPoint x="-27" y="7" as="offset" />
          </mxGeometry>
        </mxCell>
        <mxCell id="7NGxq5-9-iapTq57Xf24-65" style="edgeStyle=orthogonalEdgeStyle;rounded=0;orthogonalLoop=1;jettySize=auto;html=1;endArrow=none;startFill=0;" edge="1" parent="1" source="7NGxq5-9-iapTq57Xf24-41" target="7NGxq5-9-iapTq57Xf24-60">
          <mxGeometry relative="1" as="geometry" />
        </mxCell>
        <mxCell id="7NGxq5-9-iapTq57Xf24-41" value="«component»&lt;br&gt;&lt;b&gt;Theia Client 1&lt;/b&gt;" style="html=1;dropTarget=0;whiteSpace=wrap;" vertex="1" parent="1">
          <mxGeometry x="610" y="260" width="165" height="70" as="geometry" />
        </mxCell>
        <mxCell id="7NGxq5-9-iapTq57Xf24-42" value="" style="shape=module;jettyWidth=8;jettyHeight=4;" vertex="1" parent="7NGxq5-9-iapTq57Xf24-41">
          <mxGeometry x="1" width="20" height="20" relative="1" as="geometry">
            <mxPoint x="-27" y="7" as="offset" />
          </mxGeometry>
        </mxCell>
        <mxCell id="7NGxq5-9-iapTq57Xf24-66" style="edgeStyle=orthogonalEdgeStyle;rounded=0;orthogonalLoop=1;jettySize=auto;html=1;endArrow=none;startFill=0;" edge="1" parent="1" source="7NGxq5-9-iapTq57Xf24-43" target="7NGxq5-9-iapTq57Xf24-62">
          <mxGeometry relative="1" as="geometry" />
        </mxCell>
        <mxCell id="7NGxq5-9-iapTq57Xf24-43" value="«component»&lt;br&gt;&lt;b&gt;Theia Client 2&lt;/b&gt;" style="html=1;dropTarget=0;whiteSpace=wrap;" vertex="1" parent="1">
          <mxGeometry x="610" y="400" width="165" height="70" as="geometry" />
        </mxCell>
        <mxCell id="7NGxq5-9-iapTq57Xf24-44" value="" style="shape=module;jettyWidth=8;jettyHeight=4;" vertex="1" parent="7NGxq5-9-iapTq57Xf24-43">
          <mxGeometry x="1" width="20" height="20" relative="1" as="geometry">
            <mxPoint x="-27" y="7" as="offset" />
          </mxGeometry>
        </mxCell>
        <mxCell id="7NGxq5-9-iapTq57Xf24-74" style="edgeStyle=orthogonalEdgeStyle;rounded=0;orthogonalLoop=1;jettySize=auto;html=1;entryX=1;entryY=0.5;entryDx=0;entryDy=0;exitX=1;exitY=0.5;exitDx=0;exitDy=0;" edge="1" parent="1" source="7NGxq5-9-iapTq57Xf24-45" target="7NGxq5-9-iapTq57Xf24-67">
          <mxGeometry relative="1" as="geometry">
            <Array as="points">
              <mxPoint x="1160" y="155" />
              <mxPoint x="1160" y="295" />
            </Array>
          </mxGeometry>
        </mxCell>
        <mxCell id="7NGxq5-9-iapTq57Xf24-75" style="edgeStyle=orthogonalEdgeStyle;rounded=0;orthogonalLoop=1;jettySize=auto;html=1;entryX=1;entryY=0.5;entryDx=0;entryDy=0;exitX=1;exitY=0.5;exitDx=0;exitDy=0;" edge="1" parent="1" source="7NGxq5-9-iapTq57Xf24-45" target="7NGxq5-9-iapTq57Xf24-69">
          <mxGeometry relative="1" as="geometry">
            <Array as="points">
              <mxPoint x="1160" y="155" />
              <mxPoint x="1160" y="435" />
            </Array>
          </mxGeometry>
        </mxCell>
        <mxCell id="7NGxq5-9-iapTq57Xf24-45" value="«component»&lt;br&gt;&lt;b&gt;Theia Landing Page&lt;/b&gt;" style="html=1;dropTarget=0;whiteSpace=wrap;" vertex="1" parent="1">
          <mxGeometry x="950" y="120" width="165" height="70" as="geometry" />
        </mxCell>
        <mxCell id="7NGxq5-9-iapTq57Xf24-46" value="" style="shape=module;jettyWidth=8;jettyHeight=4;" vertex="1" parent="7NGxq5-9-iapTq57Xf24-45">
          <mxGeometry x="1" width="20" height="20" relative="1" as="geometry">
            <mxPoint x="-27" y="7" as="offset" />
          </mxGeometry>
        </mxCell>
        <mxCell id="7NGxq5-9-iapTq57Xf24-50" value="" style="rounded=0;whiteSpace=wrap;html=1;" vertex="1" parent="1">
          <mxGeometry x="350" y="385" width="20" height="20" as="geometry" />
        </mxCell>
        <mxCell id="7NGxq5-9-iapTq57Xf24-51" value="" style="rounded=0;whiteSpace=wrap;html=1;" vertex="1" parent="1">
          <mxGeometry x="350" y="285" width="20" height="20" as="geometry" />
        </mxCell>
        <mxCell id="7NGxq5-9-iapTq57Xf24-52" value="" style="rounded=0;whiteSpace=wrap;html=1;" vertex="1" parent="1">
          <mxGeometry x="350" y="185" width="20" height="20" as="geometry" />
        </mxCell>
        <mxCell id="7NGxq5-9-iapTq57Xf24-53" style="edgeStyle=orthogonalEdgeStyle;rounded=0;orthogonalLoop=1;jettySize=auto;html=1;entryX=1;entryY=0.5;entryDx=0;entryDy=0;entryPerimeter=0;endArrow=none;startFill=0;" edge="1" parent="1" source="7NGxq5-9-iapTq57Xf24-10" target="7NGxq5-9-iapTq57Xf24-35">
          <mxGeometry relative="1" as="geometry" />
        </mxCell>
        <mxCell id="7NGxq5-9-iapTq57Xf24-56" style="edgeStyle=orthogonalEdgeStyle;rounded=0;orthogonalLoop=1;jettySize=auto;html=1;entryX=1;entryY=0.5;entryDx=0;entryDy=0;entryPerimeter=0;endArrow=none;startFill=0;" edge="1" parent="1" source="7NGxq5-9-iapTq57Xf24-10" target="7NGxq5-9-iapTq57Xf24-37">
          <mxGeometry relative="1" as="geometry" />
        </mxCell>
        <mxCell id="7NGxq5-9-iapTq57Xf24-57" style="edgeStyle=orthogonalEdgeStyle;rounded=0;orthogonalLoop=1;jettySize=auto;html=1;entryX=1;entryY=0.5;entryDx=0;entryDy=0;entryPerimeter=0;endArrow=none;startFill=0;" edge="1" parent="1" source="7NGxq5-9-iapTq57Xf24-10" target="7NGxq5-9-iapTq57Xf24-32">
          <mxGeometry relative="1" as="geometry" />
        </mxCell>
        <mxCell id="7NGxq5-9-iapTq57Xf24-71" style="edgeStyle=orthogonalEdgeStyle;rounded=0;orthogonalLoop=1;jettySize=auto;html=1;endArrow=none;startFill=0;" edge="1" parent="1" source="7NGxq5-9-iapTq57Xf24-58" target="7NGxq5-9-iapTq57Xf24-45">
          <mxGeometry relative="1" as="geometry" />
        </mxCell>
        <mxCell id="7NGxq5-9-iapTq57Xf24-58" value="" style="shape=providedRequiredInterface;html=1;verticalLabelPosition=bottom;sketch=0;direction=west;" vertex="1" parent="1">
          <mxGeometry x="820" y="140" width="30" height="30" as="geometry" />
        </mxCell>
        <mxCell id="7NGxq5-9-iapTq57Xf24-59" value="Operator API" style="text;html=1;align=center;verticalAlign=middle;resizable=0;points=[];autosize=1;strokeColor=none;fillColor=none;" vertex="1" parent="1">
          <mxGeometry x="840" y="120" width="90" height="30" as="geometry" />
        </mxCell>
        <mxCell id="7NGxq5-9-iapTq57Xf24-72" style="edgeStyle=orthogonalEdgeStyle;rounded=0;orthogonalLoop=1;jettySize=auto;html=1;endArrow=none;startFill=0;" edge="1" parent="1" source="7NGxq5-9-iapTq57Xf24-60" target="7NGxq5-9-iapTq57Xf24-67">
          <mxGeometry relative="1" as="geometry" />
        </mxCell>
        <mxCell id="7NGxq5-9-iapTq57Xf24-60" value="" style="shape=providedRequiredInterface;html=1;verticalLabelPosition=bottom;sketch=0;direction=west;" vertex="1" parent="1">
          <mxGeometry x="820" y="280" width="30" height="30" as="geometry" />
        </mxCell>
        <mxCell id="7NGxq5-9-iapTq57Xf24-61" value="Session API" style="text;html=1;align=center;verticalAlign=middle;resizable=0;points=[];autosize=1;strokeColor=none;fillColor=none;" vertex="1" parent="1">
          <mxGeometry x="840" y="260" width="90" height="30" as="geometry" />
        </mxCell>
        <mxCell id="7NGxq5-9-iapTq57Xf24-73" style="edgeStyle=orthogonalEdgeStyle;rounded=0;orthogonalLoop=1;jettySize=auto;html=1;endArrow=none;startFill=0;" edge="1" parent="1" source="7NGxq5-9-iapTq57Xf24-62" target="7NGxq5-9-iapTq57Xf24-69">
          <mxGeometry relative="1" as="geometry" />
        </mxCell>
        <mxCell id="7NGxq5-9-iapTq57Xf24-62" value="" style="shape=providedRequiredInterface;html=1;verticalLabelPosition=bottom;sketch=0;direction=west;" vertex="1" parent="1">
          <mxGeometry x="820" y="420" width="30" height="30" as="geometry" />
        </mxCell>
        <mxCell id="7NGxq5-9-iapTq57Xf24-63" value="Session API" style="text;html=1;align=center;verticalAlign=middle;resizable=0;points=[];autosize=1;strokeColor=none;fillColor=none;" vertex="1" parent="1">
          <mxGeometry x="840" y="400" width="90" height="30" as="geometry" />
        </mxCell>
        <mxCell id="7NGxq5-9-iapTq57Xf24-67" value="«component»&lt;br&gt;&lt;b&gt;Theia Landing Page&lt;/b&gt;" style="html=1;dropTarget=0;whiteSpace=wrap;" vertex="1" parent="1">
          <mxGeometry x="950" y="260" width="165" height="70" as="geometry" />
        </mxCell>
        <mxCell id="7NGxq5-9-iapTq57Xf24-68" value="" style="shape=module;jettyWidth=8;jettyHeight=4;" vertex="1" parent="7NGxq5-9-iapTq57Xf24-67">
          <mxGeometry x="1" width="20" height="20" relative="1" as="geometry">
            <mxPoint x="-27" y="7" as="offset" />
          </mxGeometry>
        </mxCell>
        <mxCell id="7NGxq5-9-iapTq57Xf24-69" value="«component»&lt;br&gt;&lt;b&gt;Theia Landing Page&lt;/b&gt;" style="html=1;dropTarget=0;whiteSpace=wrap;" vertex="1" parent="1">
          <mxGeometry x="950" y="400" width="165" height="70" as="geometry" />
        </mxCell>
        <mxCell id="7NGxq5-9-iapTq57Xf24-70" value="" style="shape=module;jettyWidth=8;jettyHeight=4;" vertex="1" parent="7NGxq5-9-iapTq57Xf24-69">
          <mxGeometry x="1" width="20" height="20" relative="1" as="geometry">
            <mxPoint x="-27" y="7" as="offset" />
          </mxGeometry>
        </mxCell>
      </root>
    </mxGraphModel>
  </diagram>
</mxfile>
